HIERARCHY
ROOT hip
{
	OFFSET 0.000000 0.000000 0.000000 
	CHANNELS 6 Xposition Yposition Zposition Xrotation Zrotation Yrotation
	JOINT abdomen
	{
		OFFSET 0.000000 3.402643 0.000000 
		CHANNELS 3 Xrotation Zrotation Yrotation
		JOINT chest
		{
			OFFSET 0.000000 8.438565 -0.680529 
			CHANNELS 3 Xrotation Zrotation Yrotation
			JOINT neck
			{
				OFFSET 0.000000 10.207942 -0.272212 
				CHANNELS 3 Xrotation Zrotation Yrotation
				JOINT head
				{
					OFFSET 0.000000 3.130431 0.000000 
					CHANNELS 3 Xrotation Zrotation Yrotation
					End Site
					{
						OFFSET 0.000000 3.130435 0.000000 
					}
				}
			}
			JOINT lCollar
			{
				OFFSET 3.470700 6.669187 -0.816635 
				CHANNELS 3 Yrotation Zrotation Xrotation
				JOINT lShldr
				{
					OFFSET 3.198488 0.000000 0.000000 
					CHANNELS 3 Zrotation Yrotation Xrotation
					JOINT lForeArm
					{
						OFFSET 10.139888 0.000000 0.000000 
						CHANNELS 3 Yrotation Zrotation Xrotation
						JOINT lHand
						{
							OFFSET 8.370511 0.000000 0.000000 
							CHANNELS 3 Zrotation Yrotation Xrotation
							End Site
							{
								OFFSET 4.083176 0.000000 0.000000 
							}
						}
					}
				}
			}
			JOINT rCollar
			{
				OFFSET -3.470700 6.669187 -0.816635 
				CHANNELS 3 Yrotation Zrotation Xrotation
				JOINT rShldr
				{
					OFFSET -3.198488 0.000000 0.000000 
					CHANNELS 3 Zrotation Yrotation Xrotation
					JOINT rForeArm
					{
						OFFSET -10.139888 0.000000 0.000000 
						CHANNELS 3 Yrotation Zrotation Xrotation
						JOINT rHand
						{
							OFFSET -8.370511 0.000000 0.000000 
							CHANNELS 3 Zrotation Yrotation Xrotation
							End Site
							{
								OFFSET -4.083176 0.000000 0.000000 
							}
						}
					}
				}
			}
		}
	}
	JOINT lThigh
	{
		OFFSET 5.308129 -1.633274 1.361059 
		CHANNELS 3 Xrotation Zrotation Yrotation
		JOINT lShin
		{
			OFFSET -2.041588 -20.007561 0.000000 
			CHANNELS 3 Xrotation Zrotation Yrotation
			JOINT lFoot
			{
				OFFSET 0.000000 -19.190928 -1.224953 
				CHANNELS 3 Xrotation Yrotation Zrotation
				End Site
				{
					OFFSET 0.000000 -2.449906 4.627600 
				}
			}
		}
	}
	JOINT rThigh
	{
		OFFSET -5.308129 -1.633274 1.361059 
		CHANNELS 3 Xrotation Zrotation Yrotation
		JOINT rShin
		{
			OFFSET 2.041588 -20.007561 0.000000 
			CHANNELS 3 Xrotation Zrotation Yrotation
			JOINT rFoot
			{
				OFFSET 0.000000 -19.190928 -1.224953 
				CHANNELS 3 Xrotation Yrotation Zrotation
				End Site
				{
					OFFSET 0.000000 -2.449906 4.627600 
				}
			}
		}
	}
}
MOTION
Frames: 13
Frame Time: 0.016667
-19.266600 24.443523 -10.181868 -6.807101 14.083724 -7.571898 0.159215 -11.074176 -1.516263 -0.923120 15.701188 -1.430082 -2.085952 -25.366154 -8.356615 -6.174124 -1.543732 -4.383865 1.993405 -2.003458 -0.008156 -118.710884 -16.700634 21.903299 1.028878 -46.154366 -0.571859 -0.074623 0.094901 13.642609 -2.003062 1.991579 -0.506922 71.412262 -8.320751 -17.752111 0.267397 -28.781389 -0.444524 0.078474 -0.095754 11.328127 82.931938 -96.952362 -71.316299 -4.785089 115.736214 -0.315552 0.285446 -4.093329 -41.970490 88.570831 -58.596294 -79.509880 4.790558 134.410522 0.423436 7.465765 27.488146 -49.222794 
-19.377134 23.604624 -10.274510 -7.026731 13.349895 -7.927812 -0.089526 -10.966784 -1.584842 -1.012264 15.261402 -1.514791 -1.660450 -25.859692 -8.308931 -6.028206 -1.748098 -4.346763 1.993405 -2.003458 -0.008156 -119.977493 -17.188946 21.809593 1.114205 -48.244499 -0.509937 -0.077349 0.095522 12.001985 -2.003062 1.991579 -0.506922 71.233711 -8.309612 -19.520683 0.265796 -28.146589 -0.437422 0.078980 -0.095854 11.025393 80.978287 -98.045662 -68.991478 -4.800648 117.941605 -0.335428 0.224814 -4.271118 -42.242222 89.725845 -56.672260 -80.205017 4.869133 136.451721 0.445462 8.816149 29.584417 -51.141296 
-19.481544 22.832743 -10.380071 -7.207821 12.675770 -8.591408 -0.507144 -10.868726 -1.536945 -1.394733 14.927414 -1.646341 -1.249840 -26.029781 -8.215434 -5.881779 -1.787421 -4.269107 1.993405 -2.003458 -0.008156 -121.154892 -17.703629 21.493610 1.193298 -50.344231 -0.452247 -0.071744 0.086395 10.585956 -2.003062 1.991579 -0.506922 71.250565 -8.444470 -21.446314 0.253665 -27.697302 -0.448394 0.079438 -0.095942 10.751956 80.688797 -99.754044 -68.203018 -4.829745 120.080421 -0.331909 0.098657 -4.792326 -42.556824 90.527748 -55.285278 -80.587265 4.897437 138.255630 0.431302 10.643408 31.833340 -53.366611 
-19.576828 22.139639 -10.496659 -7.464509 11.845016 -9.459748 -0.984070 -10.750404 -1.468214 -2.018779 14.649497 -1.856629 -1.012273 -26.207396 -8.012784 -5.813542 -1.836217 -4.149111 1.993405 -2.003458 -0.008156 -122.235207 -18.485859 21.032282 1.295115 -52.365852 -0.377743 -0.083147 0.086685 9.501972 -2.003062 1.991579 -0.506922 71.419739 -8.615584 -23.266890 0.253078 -27.443398 -0.449392 0.080256 -0.096094 10.263676 82.566139 -101.872414 -69.326576 -4.893170 122.065109 -0.372704 -0.080535 -5.329946 -43.426048 91.237015 -54.065609 -80.697685 4.940112 139.845795 0.444293 12.825768 34.169155 -55.903271 
-19.649099 21.518559 -10.604619 -7.658266 10.890689 -10.253734 -1.470420 -10.602056 -1.468712 -2.682079 14.408687 -2.131134 -0.885028 -26.647650 -7.799142 -5.794563 -2.001448 -4.035339 1.993405 -2.003458 -0.008156 -123.294205 -19.573656 20.530970 1.387006 -54.250488 -0.292491 -0.082570 0.096484 8.886740 -2.003062 1.991579 -0.506922 71.506516 -8.816778 -25.192190 0.252038 -26.984419 -0.451201 0.081076 -0.096238 9.775394 84.440178 -104.157524 -70.482399 -4.910396 123.762123 -0.356972 -0.303389 -6.125473 -44.175316 91.900429 -52.777775 -80.827911 4.987923 141.270111 0.452318 15.123572 36.452831 -58.365593 
-19.699739 20.953625 -10.703252 -7.725678 10.007861 -10.881604 -2.177560 -10.841960 -1.574435 -3.356382 14.322108 -2.470120 -0.779674 -27.214642 -7.528023 -5.814984 -2.234548 -3.874227 1.993405 -2.003458 -0.008156 -124.353836 -20.745453 19.837910 1.465056 -55.959408 -0.233222 -0.083261 0.096589 8.476583 -2.003062 1.991579 -0.506922 71.490417 -9.209815 -27.205805 0.239742 -26.349545 -0.448283 0.081617 -0.096330 9.453129 86.034180 -106.404160 -71.493164 -4.915122 125.232231 -0.325214 -0.720051 -7.609384 -44.613945 91.934494 -51.243038 -80.663803 5.014643 142.566147 0.457777 17.552734 38.483982 -60.993324 
-19.750383 20.430702 -10.796070 -7.912579 9.093758 -11.502153 -2.891471 -10.631289 -1.761198 -4.295430 14.404480 -2.943367 -0.528786 -27.567358 -7.295007 -5.805605 -2.331742 -3.718261 1.993405 -2.003458 -0.008156 -125.487228 -22.034645 19.000374 1.561126 -57.463146 -0.157415 -0.083308 0.106459 7.675804 -2.003062 1.991579 -0.506922 71.437393 -9.822932 -29.309698 0.238370 -25.675720 -0.450863 0.081896 -0.096376 9.287113 87.350685 -108.748329 -72.150055 -4.976307 126.569412 -0.365944 -1.224386 -9.501277 -44.668629 91.913651 -49.457153 -80.486389 5.067263 143.785950 0.465074 20.036512 40.289429 -63.759926 
-19.825407 19.952044 -10.885900 -8.335459 8.088631 -12.225183 -3.404795 -10.323936 -1.929321 -5.008567 14.721430 -3.324421 -0.121595 -27.939402 -7.259547 -5.718171 -2.458424 -3.660383 1.993405 -2.003458 -0.008156 -126.976646 -23.714802 18.644907 1.639271 -58.791058 -0.091003 -0.085689 0.106753 6.396510 -2.003062 1.991579 -0.506922 71.470551 -10.215466 -32.042046 0.226669 -25.216661 -0.456790 0.082208 -0.096427 9.101567 -90.577415 -68.743011 106.913803 -5.014160 127.816994 -0.365802 -1.705422 -11.112735 -44.821655 92.297371 -47.434723 -80.427872 5.074475 144.944077 0.458142 22.658360 42.078690 -66.711510 
-19.876801 19.521526 -10.982843 -8.691599 7.173405 -12.949057 -3.748980 -10.047254 -2.032118 -5.370606 15.063574 -3.545620 0.310901 -28.417616 -7.189734 -5.552717 -2.624364 -3.622177 1.993405 -2.003458 -0.008156 -128.742706 -25.695452 18.725643 1.711871 -59.874878 -0.027130 -0.098612 0.097258 5.175791 -2.003062 1.991579 -0.506922 71.730240 -10.283448 -35.208847 0.226560 -25.158070 -0.457007 0.083376 -0.096607 8.408208 -88.799522 -65.911438 106.374077 -5.051630 128.907166 -0.386960 -2.138070 -12.410840 -45.080910 92.342598 -45.727367 -80.129761 5.100758 145.927429 0.456448 25.339155 43.605099 -69.767128 
-19.869297 19.150906 -11.087628 -8.941828 6.338678 -13.777730 -4.213058 -9.885854 -2.069078 -5.790434 15.247733 -3.751835 0.578669 -28.651114 -6.814153 -5.386741 -2.673704 -3.439659 1.993405 -2.003458 -0.008156 -130.505005 -27.692177 18.587055 1.772614 -60.646156 0.025655 -0.098990 0.107090 4.501964 -2.003062 1.991579 -0.506922 72.009567 -10.378922 -38.455975 0.226361 -25.050650 -0.457405 0.084448 -0.096759 7.773443 -87.550606 -62.689880 106.311325 -5.039213 129.805740 -0.326586 -2.715603 -14.080229 -45.252552 92.347382 -44.807762 -79.909363 5.142859 146.706482 0.473997 27.585167 44.708717 -72.228714 
-19.829535 18.849056 -11.185748 -9.280989 5.474707 -14.711230 -4.707675 -9.811188 -2.145375 -6.419210 15.279243 -4.050903 0.832451 -28.376377 -6.160885 -5.200235 -2.489723 -3.113537 1.993405 -2.003458 -0.008156 -132.035248 -29.651852 17.893431 1.801063 -61.153873 0.049212 -0.089736 0.107129 4.228527 -2.003062 1.991579 -0.506922 72.103210 -10.736917 -41.830246 0.225349 -24.494013 -0.459472 0.083805 -0.096669 8.154302 -86.203766 -59.466667 106.158348 -5.110124 130.583664 -0.382523 -3.350834 -15.812749 -45.412052 92.648994 -44.583122 -79.787346 5.147067 147.403397 0.439534 29.412642 45.463902 -74.318832 
-19.811279 18.622480 -11.261823 -9.844754 4.474421 -15.638831 -5.083786 -9.776591 -2.377680 -6.999204 15.358937 -4.389904 1.384459 -28.147337 -5.624973 -4.906394 -2.325441 -2.847473 1.993405 -2.003458 -0.008156 -133.400848 -31.698986 16.906208 1.845912 -61.573566 0.098497 -0.090430 0.107179 3.857433 -2.003062 1.991579 -0.506922 72.180977 -11.267262 -45.214542 0.213361 -23.741953 -0.460378 0.081978 -0.096390 9.238284 -84.722893 -56.575260 105.998993 -5.127732 131.159378 -0.371696 -3.783978 -17.091261 -45.529011 93.071152 -44.328369 -79.502831 5.146629 147.933777 0.438032 31.068256 46.029709 -76.509460 
-19.796398 18.464678 -11.316091 -10.517941 3.504713 -16.441256 -5.322053 -9.802139 -2.725840 -7.377841 15.463099 -4.700554 2.118040 -28.274677 -5.242471 -4.574219 -2.365497 -2.642995 1.993405 -2.003458 -0.008156 -134.659576 -33.856960 15.928060 1.869498 -61.964138 0.111955 -0.101548 0.107261 3.134778 -2.003062 1.991579 -0.506922 72.484833 -11.845065 -48.121758 0.212587 -23.263439 -0.462023 0.081190 -0.096258 9.707035 -83.017204 -54.394791 105.616714 -5.106845 131.523666 -0.326837 -4.152774 -18.017786 -45.610195 93.589714 -43.889099 -79.253372 5.153268 148.385971 0.422065 32.468723 46.500450 -78.330299 
